<?xml version="1.0" encoding="UTF-8"?><svg xmlns="http://www.w3.org/2000/svg" xmlns:xlink="http://www.w3.org/1999/xlink" stroke-dasharray="none" shape-rendering="auto" font-family="'Dialog'" width="411" text-rendering="auto" fill-opacity="1" contentScriptType="text/ecmascript" color-interpolation="auto" color-rendering="auto" preserveAspectRatio="xMidYMid meet" font-size="12" viewBox="0 0 411 191" fill="black" stroke="black" image-rendering="auto" stroke-miterlimit="10" zoomAndPan="magnify" version="1.0" stroke-linecap="square" stroke-linejoin="miter" contentStyleType="text/css" font-style="normal" height="191" stroke-width="1" stroke-dashoffset="0" font-weight="normal" stroke-opacity="1">
    <!--Generated by the Batik Graphics2D SVG Generator-->
    <defs id="genericDefs"/>
    <g>
        <defs id="defs1">
            <linearGradient x1="10" x2="10" y1="10" gradientUnits="userSpaceOnUse" y2="181" xlink:type="simple" xlink:actuate="onLoad" id="linearGradient1" xlink:show="other" spreadMethod="pad">
                <stop stop-opacity="1" stop-color="white" offset="0%"/>
                <stop stop-opacity="1" stop-color="rgb(195,209,213)" offset="100%"/>
            </linearGradient>
            <linearGradient x1="11" x2="11" y1="35" gradientUnits="userSpaceOnUse" y2="181" xlink:type="simple" xlink:actuate="onLoad" id="linearGradient2" xlink:show="other" spreadMethod="pad">
                <stop stop-opacity="1" stop-color="white" offset="0%"/>
                <stop stop-opacity="1" stop-color="rgb(195,209,213)" offset="100%"/>
            </linearGradient>
            <linearGradient x1="60" x2="60" y1="60" gradientUnits="userSpaceOnUse" y2="109" xlink:type="simple" xlink:actuate="onLoad" id="linearGradient3" xlink:show="other" spreadMethod="pad">
                <stop stop-opacity="1" stop-color="white" offset="0%"/>
                <stop stop-opacity="1" stop-color="rgb(195,209,213)" offset="100%"/>
            </linearGradient>
            <linearGradient x1="160" x2="160" y1="60" gradientUnits="userSpaceOnUse" y2="161" xlink:type="simple" xlink:actuate="onLoad" id="linearGradient4" xlink:show="other" spreadMethod="pad">
                <stop stop-opacity="1" stop-color="white" offset="0%"/>
                <stop stop-opacity="1" stop-color="rgb(195,209,213)" offset="100%"/>
            </linearGradient>
            <linearGradient x1="161" x2="161" y1="85" gradientUnits="userSpaceOnUse" y2="161" xlink:type="simple" xlink:actuate="onLoad" id="linearGradient5" xlink:show="other" spreadMethod="pad">
                <stop stop-opacity="1" stop-color="white" offset="0%"/>
                <stop stop-opacity="1" stop-color="rgb(195,209,213)" offset="100%"/>
            </linearGradient>
            <clipPath clipPathUnits="userSpaceOnUse" id="clipPath1">
                <path d="M20 10 C14.4771 10 10 14.4772 10 20 L10 20 L10 170 C10 175.5228 14.4771 180 20 180 C20 180 20 180 20 180 L20 180 L390 180 C395.5228 180 400 175.5228 400 170 L400 170 L400 20 C400 20 400 20 400 20 C400 14.4771 395.5228 10 390 10 C390 10 390 10 390 10 L20 10 L20 10 Z"/>
            </clipPath>
            <clipPath clipPathUnits="userSpaceOnUse" id="clipPath2">
                <path d="M141 12 L271 12 L271 34 L141 34 L141 12 Z"/>
            </clipPath>
            <clipPath clipPathUnits="userSpaceOnUse" id="clipPath3">
                <path d="M10 34 L402 34 L402 182 L10 182 L10 34 Z"/>
            </clipPath>
            <clipPath clipPathUnits="userSpaceOnUse" id="clipPath4">
                <path d="M104 60 C104 60 104 60 104 60 L70 60 C64.4771 60 60 64.4772 60 70 L60 70 L60 98 C60 103.5228 64.4771 108 70 108 C70 108 70 108 70 108 L70 108 L104 108 C109.5228 108 114 103.5228 114 98 L114 98 L114 70 C114 64.4771 109.5228 60 104 60 Z"/>
            </clipPath>
            <clipPath clipPathUnits="userSpaceOnUse" id="clipPath5">
                <path d="M66 62 L111 62 L111 84 L66 84 L66 62 Z"/>
            </clipPath>
            <clipPath clipPathUnits="userSpaceOnUse" id="clipPath6">
                <path d="M59 59 L116 59 L116 110 L59 110 L59 59 Z"/>
            </clipPath>
            <clipPath clipPathUnits="userSpaceOnUse" id="clipPath7">
                <path d="M370 60 C370 60 370 60 370 60 L170 60 C164.4771 60 160 64.4772 160 70 L160 70 L160 150 C160 155.5229 164.4772 160 170 160 L370 160 C375.5228 160 380 155.5228 380 150 L380 150 L380 70 C380 64.4771 375.5228 60 370 60 Z"/>
            </clipPath>
            <clipPath clipPathUnits="userSpaceOnUse" id="clipPath8">
                <path d="M180 62 L362 62 L362 84 L180 84 L180 62 Z"/>
            </clipPath>
            <clipPath clipPathUnits="userSpaceOnUse" id="clipPath9">
                <path d="M160 84 L382 84 L382 162 L160 162 L160 84 Z"/>
            </clipPath>
            <clipPath clipPathUnits="userSpaceOnUse" id="clipPath10">
                <path d="M160 83 L382 83 L382 162 L160 162 L160 83 Z"/>
            </clipPath>
            <clipPath clipPathUnits="userSpaceOnUse" id="clipPath11">
                <path d="M159 59 L382 59 L382 162 L159 162 L159 59 Z"/>
            </clipPath>
            <clipPath clipPathUnits="userSpaceOnUse" id="clipPath12">
                <path d="M10 33 L402 33 L402 182 L10 182 L10 33 Z"/>
            </clipPath>
            <clipPath clipPathUnits="userSpaceOnUse" id="clipPath13">
                <path d="M9 9 L402 9 L402 182 L9 182 L9 9 Z"/>
            </clipPath>
            <clipPath clipPathUnits="userSpaceOnUse" id="clipPath14">
                <path d="M-1 -1 L412 -1 L412 192 L-1 192 L-1 -1 Z"/>
            </clipPath>
            <clipPath clipPathUnits="userSpaceOnUse" id="clipPath15">
                <path d="M125 75 L132 75 L132 97 L125 97 L125 75 Z"/>
            </clipPath>
            <clipPath clipPathUnits="userSpaceOnUse" id="clipPath16">
                <path d="M143 96 L162 96 L162 109 L143 109 L143 96 Z"/>
            </clipPath>
        </defs>
        <g fill="url(#linearGradient1)" font-family="'Segoe UI'" stroke-linejoin="round" stroke="url(#linearGradient1)" stroke-width="0" stroke-miterlimit="0">
            <rect x="10" y="10" clip-path="url(#clipPath1)" width="391" height="171" stroke="none"/>
            <text x="142" y="26" clip-path="url(#clipPath2)" fill="black" stroke="none" xml:space="preserve">SuperStateMachine</text>
            <rect x="11" y="35" clip-path="url(#clipPath3)" fill="url(#linearGradient2)" width="391" height="146" stroke="none"/>
            <rect x="60" y="60" clip-path="url(#clipPath4)" fill="url(#linearGradient3)" width="55" height="49" stroke="none"/>
            <text x="67" y="76" clip-path="url(#clipPath5)" fill="black" stroke="none" xml:space="preserve">State1</text>
        </g>
        <g stroke-width="1.1" font-family="'Segoe UI'" stroke-linecap="butt">
            <rect x="60" y="60" clip-path="url(#clipPath6)" fill="none" width="54" rx="10" ry="10" height="48"/>
            <rect x="160" y="60" clip-path="url(#clipPath7)" fill="url(#linearGradient4)" width="221" height="101" stroke="none"/>
            <text xml:space="preserve" x="181" y="76" clip-path="url(#clipPath8)" stroke="none">StateWithSubStateMachine</text>
            <rect x="161" y="85" clip-path="url(#clipPath9)" fill="url(#linearGradient5)" width="221" height="76" stroke="none"/>
            <line clip-path="url(#clipPath10)" fill="none" x1="160" x2="381" y1="84" y2="84"/>
            <rect x="160" y="60" clip-path="url(#clipPath11)" fill="none" width="220" rx="10" ry="10" height="100"/>
            <line clip-path="url(#clipPath12)" fill="none" x1="11" x2="402" y1="34" y2="34"/>
            <rect x="10" y="10" clip-path="url(#clipPath13)" fill="none" width="390" rx="10" ry="10" height="170"/>
            <line clip-path="url(#clipPath14)" fill="none" text-rendering="optimizeLegibility" x1="100" x2="160" y1="109" y2="100"/>
            <text x="126" y="89" clip-path="url(#clipPath15)" text-rendering="optimizeLegibility" stroke="none" xml:space="preserve"> </text>
            <line clip-path="url(#clipPath16)" fill="none" text-rendering="optimizeLegibility" x1="146" x2="160" y1="107" y2="100"/>
            <line clip-path="url(#clipPath16)" fill="none" text-rendering="optimizeLegibility" x1="160" x2="144" y1="100" y2="97"/>
            <line clip-path="url(#clipPath14)" fill="none" text-rendering="optimizeLegibility" x1="100" x2="160" y1="109" y2="100"/>
            <text x="126" y="89" clip-path="url(#clipPath15)" text-rendering="optimizeLegibility" stroke="none" xml:space="preserve"> </text>
            <line clip-path="url(#clipPath16)" fill="none" text-rendering="optimizeLegibility" x1="146" x2="160" y1="107" y2="100"/>
            <line clip-path="url(#clipPath16)" fill="none" text-rendering="optimizeLegibility" x1="160" x2="144" y1="100" y2="97"/>
        </g>
    </g>
</svg>
