<?xml version="1.0" encoding="UTF-8"?><svg xmlns="http://www.w3.org/2000/svg" xmlns:xlink="http://www.w3.org/1999/xlink" stroke-dasharray="none" shape-rendering="auto" font-family="'Dialog'" width="191" text-rendering="auto" fill-opacity="1" contentScriptType="text/ecmascript" color-interpolation="auto" color-rendering="auto" preserveAspectRatio="xMidYMid meet" font-size="12" viewBox="0 0 191 91" fill="black" stroke="black" image-rendering="auto" stroke-miterlimit="10" zoomAndPan="magnify" version="1.0" stroke-linecap="square" stroke-linejoin="miter" contentStyleType="text/css" font-style="normal" height="91" stroke-width="1" stroke-dashoffset="0" font-weight="normal" stroke-opacity="1">
    <!--Generated by the Batik Graphics2D SVG Generator-->
    <defs id="genericDefs"/>
    <g>
        <defs id="defs1">
            <linearGradient x1="10" x2="10" y1="10" gradientUnits="userSpaceOnUse" y2="81" xlink:type="simple" xlink:actuate="onLoad" id="linearGradient1" xlink:show="other" spreadMethod="pad">
                <stop stop-opacity="1" stop-color="white" offset="0%"/>
                <stop stop-opacity="1" stop-color="rgb(195,209,213)" offset="100%"/>
            </linearGradient>
            <linearGradient x1="11" x2="11" y1="35" gradientUnits="userSpaceOnUse" y2="81" xlink:type="simple" xlink:actuate="onLoad" id="linearGradient2" xlink:show="other" spreadMethod="pad">
                <stop stop-opacity="1" stop-color="white" offset="0%"/>
                <stop stop-opacity="1" stop-color="rgb(195,209,213)" offset="100%"/>
            </linearGradient>
            <clipPath clipPathUnits="userSpaceOnUse" id="clipPath1">
                <path d="M20 10 C14.4771 10 10 14.4772 10 20 L10 20 L10 70 C10 75.5228 14.4771 80 20 80 C20 80 20 80 20 80 L20 80 L170 80 C175.5228 80 180 75.5228 180 70 L180 70 L180 20 C180 20 180 20 180 20 C180 14.4771 175.5228 10 170 10 C170 10 170 10 170 10 L20 10 L20 10 Z"/>
            </clipPath>
            <clipPath clipPathUnits="userSpaceOnUse" id="clipPath2">
                <path d="M46 12 L147 12 L147 34 L46 34 L46 12 Z"/>
            </clipPath>
            <clipPath clipPathUnits="userSpaceOnUse" id="clipPath3">
                <path d="M10 34 L182 34 L182 82 L10 82 L10 34 Z"/>
            </clipPath>
            <clipPath clipPathUnits="userSpaceOnUse" id="clipPath4">
                <path d="M10 33 L182 33 L182 82 L10 82 L10 33 Z"/>
            </clipPath>
            <clipPath clipPathUnits="userSpaceOnUse" id="clipPath5">
                <path d="M9 9 L182 9 L182 82 L9 82 L9 9 Z"/>
            </clipPath>
        </defs>
        <g fill="url(#linearGradient1)" font-family="'Segoe UI'" stroke-linejoin="round" stroke="url(#linearGradient1)" stroke-width="0" stroke-miterlimit="0">
            <rect x="10" y="10" clip-path="url(#clipPath1)" width="171" height="71" stroke="none"/>
            <text x="47" y="26" clip-path="url(#clipPath2)" fill="black" stroke="none" xml:space="preserve">StateMachine1</text>
            <rect x="11" y="35" clip-path="url(#clipPath3)" fill="url(#linearGradient2)" width="171" height="46" stroke="none"/>
        </g>
        <g stroke-width="1.1" font-family="'Segoe UI'" stroke-linecap="butt">
            <line clip-path="url(#clipPath4)" fill="none" x1="11" x2="182" y1="34" y2="34"/>
            <rect x="10" y="10" clip-path="url(#clipPath5)" fill="none" width="170" rx="10" ry="10" height="70"/>
        </g>
    </g>
</svg>
