<?xml version="1.0" encoding="UTF-8"?><svg xmlns="http://www.w3.org/2000/svg" xmlns:xlink="http://www.w3.org/1999/xlink" stroke-dasharray="none" shape-rendering="auto" font-family="'Dialog'" width="231" text-rendering="auto" fill-opacity="1" contentScriptType="text/ecmascript" color-interpolation="auto" color-rendering="auto" preserveAspectRatio="xMidYMid meet" font-size="12" viewBox="0 0 231 151" fill="black" stroke="black" image-rendering="auto" stroke-miterlimit="10" zoomAndPan="magnify" version="1.0" stroke-linecap="square" stroke-linejoin="miter" contentStyleType="text/css" font-style="normal" height="151" stroke-width="1" stroke-dashoffset="0" font-weight="normal" stroke-opacity="1">
    <!--Generated by the Batik Graphics2D SVG Generator-->
    <defs id="genericDefs"/>
    <g>
        <defs id="defs1">
            <linearGradient x1="10" x2="10" y1="10" gradientUnits="userSpaceOnUse" y2="141" xlink:type="simple" xlink:actuate="onLoad" id="linearGradient1" xlink:show="other" spreadMethod="pad">
                <stop stop-opacity="1" stop-color="white" offset="0%"/>
                <stop stop-opacity="1" stop-color="rgb(195,209,213)" offset="100%"/>
            </linearGradient>
            <linearGradient x1="11" x2="11" y1="35" gradientUnits="userSpaceOnUse" y2="146" xlink:type="simple" xlink:actuate="onLoad" id="linearGradient2" xlink:show="other" spreadMethod="pad">
                <stop stop-opacity="1" stop-color="white" offset="0%"/>
                <stop stop-opacity="1" stop-color="rgb(195,209,213)" offset="100%"/>
            </linearGradient>
            <linearGradient x1="40" x2="40" y1="60" gradientUnits="userSpaceOnUse" y2="109" xlink:type="simple" xlink:actuate="onLoad" id="linearGradient3" xlink:show="other" spreadMethod="pad">
                <stop stop-opacity="1" stop-color="white" offset="0%"/>
                <stop stop-opacity="1" stop-color="rgb(195,209,213)" offset="100%"/>
            </linearGradient>
            <linearGradient x1="140" x2="140" y1="60" gradientUnits="userSpaceOnUse" y2="109" xlink:type="simple" xlink:actuate="onLoad" id="linearGradient4" xlink:show="other" spreadMethod="pad">
                <stop stop-opacity="1" stop-color="white" offset="0%"/>
                <stop stop-opacity="1" stop-color="rgb(195,209,213)" offset="100%"/>
            </linearGradient>
            <clipPath clipPathUnits="userSpaceOnUse" id="clipPath1">
                <path d="M20 10 C14.4771 10 10 14.4772 10 20 L10 20 L10 130 C10 135.5228 14.4771 140 20 140 C20 140 20 140 20 140 L20 140 L210 140 C215.5228 140 220 135.5228 220 130 L220 130 L220 20 C220 20 220 20 220 20 C220 14.4771 215.5228 10 210 10 C210 10 210 10 210 10 L20 10 L20 10 Z"/>
            </clipPath>
            <clipPath clipPathUnits="userSpaceOnUse" id="clipPath2">
                <path d="M60 12 L172 12 L172 34 L60 34 L60 12 Z"/>
            </clipPath>
            <clipPath clipPathUnits="userSpaceOnUse" id="clipPath3">
                <path d="M10 34 L222 34 L222 142 L10 142 L10 34 Z"/>
            </clipPath>
            <clipPath clipPathUnits="userSpaceOnUse" id="clipPath4">
                <path d="M84 60 C84 60 84 60 84 60 L50 60 C44.4771 60 40 64.4772 40 70 L40 98 C40 103.5228 44.4771 108 50 108 C50 108 50 108 50 108 L50 108 L84 108 C89.5228 108 94 103.5228 94 98 L94 98 L94 70 C94 64.4771 89.5228 60 84 60 Z"/>
            </clipPath>
            <clipPath clipPathUnits="userSpaceOnUse" id="clipPath5">
                <path d="M46 62 L91 62 L91 84 L46 84 L46 62 Z"/>
            </clipPath>
            <clipPath clipPathUnits="userSpaceOnUse" id="clipPath6">
                <path d="M39 59 L96 59 L96 110 L39 110 L39 59 Z"/>
            </clipPath>
            <clipPath clipPathUnits="userSpaceOnUse" id="clipPath7">
                <path d="M184 60 C184 60 184 60 184 60 L150 60 C144.4771 60 140 64.4772 140 70 L140 70 L140 98 C140 103.5228 144.4772 108 150 108 C150 108 150 108 150 108 L150 108 L184 108 C189.5228 108 194 103.5228 194 98 L194 98 L194 70 C194 64.4771 189.5228 60 184 60 Z"/>
            </clipPath>
            <clipPath clipPathUnits="userSpaceOnUse" id="clipPath8">
                <path d="M146 62 L191 62 L191 84 L146 84 L146 62 Z"/>
            </clipPath>
            <clipPath clipPathUnits="userSpaceOnUse" id="clipPath9">
                <path d="M139 59 L196 59 L196 110 L139 110 L139 59 Z"/>
            </clipPath>
            <clipPath clipPathUnits="userSpaceOnUse" id="clipPath10">
                <path d="M10 133 L222 133 L222 142 L10 142 L10 133 Z"/>
            </clipPath>
            <clipPath clipPathUnits="userSpaceOnUse" id="clipPath11">
                <path d="M10 133 L24 133 L24 142 L10 142 L10 133 Z"/>
            </clipPath>
            <clipPath clipPathUnits="userSpaceOnUse" id="clipPath12">
                <path d="M208 133 L222 133 L222 142 L208 142 L208 133 Z"/>
            </clipPath>
            <clipPath clipPathUnits="userSpaceOnUse" id="clipPath13">
                <path d="M22 133 L205 133 L205 142 L22 142 L22 133 Z"/>
            </clipPath>
            <clipPath clipPathUnits="userSpaceOnUse" id="clipPath14">
                <path d="M207 34 L222 34 L222 142 L207 142 L207 34 Z"/>
            </clipPath>
            <clipPath clipPathUnits="userSpaceOnUse" id="clipPath15">
                <path d="M209 34 L222 34 L222 48 L209 48 L209 34 Z"/>
            </clipPath>
            <clipPath clipPathUnits="userSpaceOnUse" id="clipPath16">
                <path d="M209 128 L222 128 L222 142 L209 142 L209 128 Z"/>
            </clipPath>
            <clipPath clipPathUnits="userSpaceOnUse" id="clipPath17">
                <path d="M209 46 L222 46 L222 126 L209 126 L209 46 Z"/>
            </clipPath>
            <clipPath clipPathUnits="userSpaceOnUse" id="clipPath18">
                <path d="M10 33 L222 33 L222 142 L10 142 L10 33 Z"/>
            </clipPath>
            <clipPath clipPathUnits="userSpaceOnUse" id="clipPath19">
                <path d="M9 9 L222 9 L222 142 L9 142 L9 9 Z"/>
            </clipPath>
            <clipPath clipPathUnits="userSpaceOnUse" id="clipPath20">
                <path d="M-1 -1 L232 -1 L232 152 L-1 152 L-1 -1 Z"/>
            </clipPath>
            <clipPath clipPathUnits="userSpaceOnUse" id="clipPath21">
                <path d="M114 49 L121 49 L121 71 L114 71 L114 49 Z"/>
            </clipPath>
            <clipPath clipPathUnits="userSpaceOnUse" id="clipPath22">
                <path d="M124 74 L142 74 L142 87 L124 87 L124 74 Z"/>
            </clipPath>
        </defs>
        <g fill="url(#linearGradient1)" font-family="'Segoe UI'" stroke-linejoin="round" stroke="url(#linearGradient1)" stroke-width="0" stroke-miterlimit="0">
            <rect x="10" y="10" clip-path="url(#clipPath1)" width="211" height="131" stroke="none"/>
            <text x="61" y="26" clip-path="url(#clipPath2)" fill="black" stroke="none" xml:space="preserve">MyStateMachine</text>
            <rect x="11" y="35" clip-path="url(#clipPath3)" fill="url(#linearGradient2)" width="211" height="111" stroke="none"/>
            <rect x="40" y="60" clip-path="url(#clipPath4)" fill="url(#linearGradient3)" width="55" height="49" stroke="none"/>
            <text x="47" y="76" clip-path="url(#clipPath5)" fill="black" stroke="none" xml:space="preserve">State1</text>
        </g>
        <g stroke-width="1.1" font-family="'Segoe UI'" stroke-linecap="butt">
            <rect x="40" y="60" clip-path="url(#clipPath6)" fill="none" width="54" rx="10" ry="10" height="48"/>
            <rect x="140" y="60" clip-path="url(#clipPath7)" fill="url(#linearGradient4)" width="55" height="49" stroke="none"/>
            <text xml:space="preserve" x="147" y="76" clip-path="url(#clipPath8)" stroke="none">State2</text>
            <rect x="140" y="60" clip-path="url(#clipPath9)" fill="none" width="54" rx="10" ry="10" height="48"/>
            <rect x="11" y="134" clip-path="url(#clipPath10)" fill="white" width="211" height="12" stroke="none"/>
            <rect x="11" y="134" clip-path="url(#clipPath11)" fill="white" width="12" opacity="0.5098" height="12" stroke="none"/>
            <rect x="11" y="134" clip-path="url(#clipPath11)" fill="none" width="12" opacity="0.5098" height="12" stroke="rgb(185,185,185)" stroke-width="21.1"/>
            <line clip-path="url(#clipPath11)" fill="none" x1="54" x2="53" y1="139" y2="140" opacity="0.5098" stroke="rgb(187,187,187)" stroke-width="42.1"/>
            <line clip-path="url(#clipPath11)" fill="none" x1="53" x2="54" y1="140" y2="141" opacity="0.5098" stroke="rgb(187,187,187)" stroke-width="42.1"/>
            <rect x="209" y="134" clip-path="url(#clipPath12)" fill="white" width="12" opacity="0.5098" height="12" stroke="none" stroke-width="42.1"/>
            <rect x="209" y="134" clip-path="url(#clipPath12)" fill="none" width="12" opacity="0.5098" height="12" stroke="rgb(185,185,185)" stroke-width="21.1"/>
            <line clip-path="url(#clipPath12)" fill="none" x1="251" x2="252" y1="139" y2="140" opacity="0.5098" stroke="rgb(187,187,187)" stroke-width="42.1"/>
            <line clip-path="url(#clipPath12)" fill="none" x1="252" x2="251" y1="140" y2="141" opacity="0.5098" stroke="rgb(187,187,187)" stroke-width="42.1"/>
            <rect x="23" y="134" clip-path="url(#clipPath13)" fill="white" width="181" opacity="0.5098" height="12" stroke="none" stroke-width="42.1"/>
            <rect x="23" y="134" clip-path="url(#clipPath13)" fill="none" width="181" opacity="0.5098" height="12" stroke="rgb(185,185,185)" stroke-width="21.1"/>
            <rect x="208" y="35" clip-path="url(#clipPath14)" fill="white" width="14" height="106" stroke="none" stroke-width="21.1"/>
            <rect x="210" y="35" clip-path="url(#clipPath15)" fill="white" width="12" opacity="0.5098" height="12" stroke="none" stroke-width="21.1"/>
            <rect x="210" y="35" clip-path="url(#clipPath15)" fill="none" width="12" opacity="0.5098" height="12" stroke="rgb(185,185,185)" stroke-width="21.1"/>
            <line clip-path="url(#clipPath15)" fill="none" x1="215" x2="216" y1="78" y2="77" opacity="0.5098" stroke="rgb(187,187,187)" stroke-width="42.1"/>
            <line clip-path="url(#clipPath15)" fill="none" x1="216" x2="217" y1="77" y2="78" opacity="0.5098" stroke="rgb(187,187,187)" stroke-width="42.1"/>
            <rect x="210" y="129" clip-path="url(#clipPath16)" fill="white" width="12" opacity="0.5098" height="12" stroke="none" stroke-width="42.1"/>
            <rect x="210" y="129" clip-path="url(#clipPath16)" fill="none" width="12" opacity="0.5098" height="12" stroke="rgb(185,185,185)" stroke-width="21.1"/>
            <line clip-path="url(#clipPath16)" fill="none" x1="215" x2="216" y1="171" y2="172" opacity="0.5098" stroke="rgb(187,187,187)" stroke-width="42.1"/>
            <line clip-path="url(#clipPath16)" fill="none" x1="216" x2="217" y1="172" y2="171" opacity="0.5098" stroke="rgb(187,187,187)" stroke-width="42.1"/>
            <rect x="210" y="47" clip-path="url(#clipPath17)" fill="white" width="12" opacity="0.5098" height="78" stroke="none" stroke-width="42.1"/>
            <rect x="210" y="47" clip-path="url(#clipPath17)" fill="none" width="12" opacity="0.5098" height="78" stroke="rgb(185,185,185)" stroke-width="21.1"/>
            <line clip-path="url(#clipPath18)" fill="none" x1="11" x2="222" y1="34" y2="34"/>
            <rect x="10" y="10" clip-path="url(#clipPath19)" fill="none" width="210" rx="10" ry="10" height="130"/>
            <line clip-path="url(#clipPath20)" fill="none" text-rendering="optimizeLegibility" x1="95" x2="140" y1="80" y2="80"/>
            <text x="115" y="63" clip-path="url(#clipPath21)" text-rendering="optimizeLegibility" stroke="none" xml:space="preserve"> </text>
            <line clip-path="url(#clipPath22)" fill="none" text-rendering="optimizeLegibility" x1="125" x2="140" y1="85" y2="80"/>
            <line clip-path="url(#clipPath22)" fill="none" text-rendering="optimizeLegibility" x1="140" x2="125" y1="80" y2="75"/>
            <line clip-path="url(#clipPath20)" fill="none" text-rendering="optimizeLegibility" x1="95" x2="140" y1="80" y2="80"/>
            <text x="115" y="63" clip-path="url(#clipPath21)" text-rendering="optimizeLegibility" stroke="none" xml:space="preserve"> </text>
            <line clip-path="url(#clipPath22)" fill="none" text-rendering="optimizeLegibility" x1="125" x2="140" y1="85" y2="80"/>
            <line clip-path="url(#clipPath22)" fill="none" text-rendering="optimizeLegibility" x1="140" x2="125" y1="80" y2="75"/>
        </g>
    </g>
</svg>
