<?xml version="1.0" encoding="UTF-8"?><svg xmlns="http://www.w3.org/2000/svg" xmlns:xlink="http://www.w3.org/1999/xlink" stroke-dasharray="none" shape-rendering="auto" font-family="'Dialog'" width="431" text-rendering="auto" fill-opacity="1" contentScriptType="text/ecmascript" color-interpolation="auto" color-rendering="auto" preserveAspectRatio="xMidYMid meet" font-size="12" viewBox="0 0 431 171" fill="black" stroke="black" image-rendering="auto" stroke-miterlimit="10" zoomAndPan="magnify" version="1.0" stroke-linecap="square" stroke-linejoin="miter" contentStyleType="text/css" font-style="normal" height="171" stroke-width="1" stroke-dashoffset="0" font-weight="normal" stroke-opacity="1">
    <!--Generated by the Batik Graphics2D SVG Generator-->
    <defs id="genericDefs"/>
    <g>
        <defs id="defs1">
            <linearGradient x1="10" x2="10" y1="10" gradientUnits="userSpaceOnUse" y2="161" xlink:type="simple" xlink:actuate="onLoad" id="linearGradient1" xlink:show="other" spreadMethod="pad">
                <stop stop-opacity="1" stop-color="white" offset="0%"/>
                <stop stop-opacity="1" stop-color="rgb(195,209,213)" offset="100%"/>
            </linearGradient>
            <linearGradient x1="11" x2="11" y1="35" gradientUnits="userSpaceOnUse" y2="161" xlink:type="simple" xlink:actuate="onLoad" id="linearGradient2" xlink:show="other" spreadMethod="pad">
                <stop stop-opacity="1" stop-color="white" offset="0%"/>
                <stop stop-opacity="1" stop-color="rgb(195,209,213)" offset="100%"/>
            </linearGradient>
            <linearGradient x1="60" x2="60" y1="60" gradientUnits="userSpaceOnUse" y2="109" xlink:type="simple" xlink:actuate="onLoad" id="linearGradient3" xlink:show="other" spreadMethod="pad">
                <stop stop-opacity="1" stop-color="white" offset="0%"/>
                <stop stop-opacity="1" stop-color="rgb(195,209,213)" offset="100%"/>
            </linearGradient>
            <linearGradient x1="300" x2="300" y1="60" gradientUnits="userSpaceOnUse" y2="109" xlink:type="simple" xlink:actuate="onLoad" id="linearGradient4" xlink:show="other" spreadMethod="pad">
                <stop stop-opacity="1" stop-color="white" offset="0%"/>
                <stop stop-opacity="1" stop-color="rgb(195,209,213)" offset="100%"/>
            </linearGradient>
            <clipPath clipPathUnits="userSpaceOnUse" id="clipPath1">
                <path d="M20 10 C14.4771 10 10 14.4772 10 20 L10 20 L10 150 C10 155.5228 14.4771 160 20 160 C20 160 20 160 20 160 L20 160 L410 160 C415.5228 160 420 155.5228 420 150 L420 150 L420 20 C420 20 420 20 420 20 C420 14.4771 415.5228 10 410 10 C410 10 410 10 410 10 L20 10 L20 10 Z"/>
            </clipPath>
            <clipPath clipPathUnits="userSpaceOnUse" id="clipPath2">
                <path d="M90 12 L342 12 L342 34 L90 34 L90 12 Z"/>
            </clipPath>
            <clipPath clipPathUnits="userSpaceOnUse" id="clipPath3">
                <path d="M10 34 L422 34 L422 161 L10 161 L10 34 Z"/>
            </clipPath>
            <clipPath clipPathUnits="userSpaceOnUse" id="clipPath4">
                <path d="M104 60 C104 60 104 60 104 60 L70 60 C64.4771 60 60 64.4772 60 70 L60 70 L60 98 C60 103.5228 64.4771 108 70 108 C70 108 70 108 70 108 L70 108 L104 108 C109.5228 108 114 103.5228 114 98 L114 98 L114 70 C114 64.4771 109.5228 60 104 60 Z"/>
            </clipPath>
            <clipPath clipPathUnits="userSpaceOnUse" id="clipPath5">
                <path d="M66 62 L111 62 L111 84 L66 84 L66 62 Z"/>
            </clipPath>
            <clipPath clipPathUnits="userSpaceOnUse" id="clipPath6">
                <path d="M59 59 L116 59 L116 110 L59 110 L59 59 Z"/>
            </clipPath>
            <clipPath clipPathUnits="userSpaceOnUse" id="clipPath7">
                <path d="M344 60 C344 60 344 60 344 60 L310 60 C304.4771 60 300 64.4772 300 70 L300 70 L300 98 C300 103.5228 304.4771 108 310 108 C310 108 310 108 310 108 L310 108 L344 108 C349.5228 108 354 103.5228 354 98 L354 98 L354 70 C354 64.4771 349.5228 60 344 60 Z"/>
            </clipPath>
            <clipPath clipPathUnits="userSpaceOnUse" id="clipPath8">
                <path d="M306 62 L351 62 L351 84 L306 84 L306 62 Z"/>
            </clipPath>
            <clipPath clipPathUnits="userSpaceOnUse" id="clipPath9">
                <path d="M299 59 L356 59 L356 110 L299 110 L299 59 Z"/>
            </clipPath>
            <clipPath clipPathUnits="userSpaceOnUse" id="clipPath10">
                <path d="M407 34 L422 34 L422 161 L407 161 L407 34 Z"/>
            </clipPath>
            <clipPath clipPathUnits="userSpaceOnUse" id="clipPath11">
                <path d="M409 34 L422 34 L422 48 L409 48 L409 34 Z"/>
            </clipPath>
            <clipPath clipPathUnits="userSpaceOnUse" id="clipPath12">
                <path d="M409 147 L422 147 L422 161 L409 161 L409 147 Z"/>
            </clipPath>
            <clipPath clipPathUnits="userSpaceOnUse" id="clipPath13">
                <path d="M409 46 L422 46 L422 148 L409 148 L409 46 Z"/>
            </clipPath>
            <clipPath clipPathUnits="userSpaceOnUse" id="clipPath14">
                <path d="M10 33 L422 33 L422 161 L10 161 L10 33 Z"/>
            </clipPath>
            <clipPath clipPathUnits="userSpaceOnUse" id="clipPath15">
                <path d="M9 9 L422 9 L422 162 L9 162 L9 9 Z"/>
            </clipPath>
            <clipPath clipPathUnits="userSpaceOnUse" id="clipPath16">
                <path d="M-1 -1 L432 -1 L432 172 L-1 172 L-1 -1 Z"/>
            </clipPath>
            <clipPath clipPathUnits="userSpaceOnUse" id="clipPath17">
                <path d="M164 89 L251 89 L251 111 L164 111 L164 89 Z"/>
            </clipPath>
            <clipPath clipPathUnits="userSpaceOnUse" id="clipPath18">
                <path d="M139 49 L276 49 L276 71 L139 71 L139 49 Z"/>
            </clipPath>
            <clipPath clipPathUnits="userSpaceOnUse" id="clipPath19">
                <path d="M284 74 L302 74 L302 87 L284 87 L284 74 Z"/>
            </clipPath>
        </defs>
        <g fill="url(#linearGradient1)" font-family="'Segoe UI'" stroke-linejoin="round" stroke="url(#linearGradient1)" stroke-width="0" stroke-miterlimit="0">
            <rect x="10" y="10" clip-path="url(#clipPath1)" width="411" height="151" stroke="none"/>
            <text x="91" y="26" clip-path="url(#clipPath2)" fill="black" stroke="none" xml:space="preserve">GuardWithoutSemanticsStateMachine</text>
            <rect x="11" y="35" clip-path="url(#clipPath3)" fill="url(#linearGradient2)" width="411" height="126" stroke="none"/>
            <rect x="60" y="60" clip-path="url(#clipPath4)" fill="url(#linearGradient3)" width="55" height="49" stroke="none"/>
            <text x="67" y="76" clip-path="url(#clipPath5)" fill="black" stroke="none" xml:space="preserve">State2</text>
        </g>
        <g stroke-width="1.1" font-family="'Segoe UI'" stroke-linecap="butt">
            <rect x="60" y="60" clip-path="url(#clipPath6)" fill="none" width="54" rx="10" ry="10" height="48"/>
            <rect x="300" y="60" clip-path="url(#clipPath7)" fill="url(#linearGradient4)" width="55" height="49" stroke="none"/>
            <text xml:space="preserve" x="307" y="76" clip-path="url(#clipPath8)" stroke="none">State3</text>
            <rect x="300" y="60" clip-path="url(#clipPath9)" fill="none" width="54" rx="10" ry="10" height="48"/>
            <rect x="408" y="35" clip-path="url(#clipPath10)" fill="white" width="14" height="125" stroke="none"/>
            <rect x="410" y="35" clip-path="url(#clipPath11)" fill="white" width="12" opacity="0.5098" height="12" stroke="none"/>
            <rect x="410" y="35" clip-path="url(#clipPath11)" fill="none" width="12" opacity="0.5098" height="12" stroke="rgb(185,185,185)" stroke-width="21.1"/>
            <line clip-path="url(#clipPath11)" fill="none" x1="415" x2="416" y1="78" y2="77" opacity="0.5098" stroke="rgb(187,187,187)" stroke-width="42.1"/>
            <line clip-path="url(#clipPath11)" fill="none" x1="416" x2="417" y1="77" y2="78" opacity="0.5098" stroke="rgb(187,187,187)" stroke-width="42.1"/>
            <rect x="410" y="148" clip-path="url(#clipPath12)" fill="white" width="12" opacity="0.5098" height="12" stroke="none" stroke-width="42.1"/>
            <rect x="410" y="148" clip-path="url(#clipPath12)" fill="none" width="12" opacity="0.5098" height="12" stroke="rgb(185,185,185)" stroke-width="21.1"/>
            <line clip-path="url(#clipPath12)" fill="none" x1="415" x2="416" y1="190" y2="191" opacity="0.5098" stroke="rgb(187,187,187)" stroke-width="42.1"/>
            <line clip-path="url(#clipPath12)" fill="none" x1="416" x2="417" y1="191" y2="190" opacity="0.5098" stroke="rgb(187,187,187)" stroke-width="42.1"/>
            <rect x="410" y="47" clip-path="url(#clipPath13)" fill="white" width="12" opacity="0.5098" height="100" stroke="none" stroke-width="42.1"/>
            <rect x="410" y="47" clip-path="url(#clipPath13)" fill="none" width="12" opacity="0.5098" height="100" stroke="rgb(185,185,185)" stroke-width="21.1"/>
            <line clip-path="url(#clipPath14)" fill="none" x1="11" x2="422" y1="34" y2="34"/>
            <rect x="10" y="10" clip-path="url(#clipPath15)" fill="none" width="410" rx="10" ry="10" height="150"/>
            <line clip-path="url(#clipPath16)" fill="none" text-rendering="optimizeLegibility" x1="115" x2="300" y1="80" y2="80"/>
            <text x="165" y="103" clip-path="url(#clipPath17)" text-rendering="optimizeLegibility" stroke="none" xml:space="preserve">myTransition</text>
            <text x="140" y="63" clip-path="url(#clipPath18)" text-rendering="optimizeLegibility" stroke="none" xml:space="preserve">[MyGuard (no spec)]</text>
            <line clip-path="url(#clipPath19)" fill="none" text-rendering="optimizeLegibility" x1="285" x2="300" y1="85" y2="80"/>
            <line clip-path="url(#clipPath19)" fill="none" text-rendering="optimizeLegibility" x1="300" x2="285" y1="80" y2="75"/>
            <line clip-path="url(#clipPath16)" fill="none" text-rendering="optimizeLegibility" x1="115" x2="300" y1="80" y2="80"/>
            <text x="165" y="103" clip-path="url(#clipPath17)" text-rendering="optimizeLegibility" stroke="none" xml:space="preserve">myTransition</text>
            <text x="140" y="63" clip-path="url(#clipPath18)" text-rendering="optimizeLegibility" stroke="none" xml:space="preserve">[MyGuard (no spec)]</text>
            <line clip-path="url(#clipPath19)" fill="none" text-rendering="optimizeLegibility" x1="285" x2="300" y1="85" y2="80"/>
            <line clip-path="url(#clipPath19)" fill="none" text-rendering="optimizeLegibility" x1="300" x2="285" y1="80" y2="75"/>
        </g>
    </g>
</svg>
