<?xml version="1.0" encoding="UTF-8"?><svg xmlns="http://www.w3.org/2000/svg" xmlns:xlink="http://www.w3.org/1999/xlink" stroke-dasharray="none" shape-rendering="auto" font-family="'Dialog'" width="251" text-rendering="auto" fill-opacity="1" contentScriptType="text/ecmascript" color-interpolation="auto" color-rendering="auto" preserveAspectRatio="xMidYMid meet" font-size="12" viewBox="0 0 251 151" fill="black" stroke="black" image-rendering="auto" stroke-miterlimit="10" zoomAndPan="magnify" version="1.0" stroke-linecap="square" stroke-linejoin="miter" contentStyleType="text/css" font-style="normal" height="151" stroke-width="1" stroke-dashoffset="0" font-weight="normal" stroke-opacity="1">
    <!--Generated by the Batik Graphics2D SVG Generator-->
    <defs id="genericDefs"/>
    <g>
        <defs id="defs1">
            <linearGradient x1="10" x2="10" y1="10" gradientUnits="userSpaceOnUse" y2="141" xlink:type="simple" xlink:actuate="onLoad" id="linearGradient1" xlink:show="other" spreadMethod="pad">
                <stop stop-opacity="1" stop-color="white" offset="0%"/>
                <stop stop-opacity="1" stop-color="rgb(195,209,213)" offset="100%"/>
            </linearGradient>
            <linearGradient x1="11" x2="11" y1="35" gradientUnits="userSpaceOnUse" y2="141" xlink:type="simple" xlink:actuate="onLoad" id="linearGradient2" xlink:show="other" spreadMethod="pad">
                <stop stop-opacity="1" stop-color="white" offset="0%"/>
                <stop stop-opacity="1" stop-color="rgb(195,209,213)" offset="100%"/>
            </linearGradient>
            <linearGradient x1="40" x2="40" y1="60" gradientUnits="userSpaceOnUse" y2="109" xlink:type="simple" xlink:actuate="onLoad" id="linearGradient3" xlink:show="other" spreadMethod="pad">
                <stop stop-opacity="1" stop-color="white" offset="0%"/>
                <stop stop-opacity="1" stop-color="rgb(195,209,213)" offset="100%"/>
            </linearGradient>
            <linearGradient x1="160" x2="160" y1="60" gradientUnits="userSpaceOnUse" y2="109" xlink:type="simple" xlink:actuate="onLoad" id="linearGradient4" xlink:show="other" spreadMethod="pad">
                <stop stop-opacity="1" stop-color="white" offset="0%"/>
                <stop stop-opacity="1" stop-color="rgb(195,209,213)" offset="100%"/>
            </linearGradient>
            <clipPath clipPathUnits="userSpaceOnUse" id="clipPath1">
                <path d="M20 10 C14.4771 10 10 14.4772 10 20 L10 20 L10 130 C10 135.5228 14.4771 140 20 140 C20 140 20 140 20 140 L20 140 L230 140 C235.5228 140 240 135.5228 240 130 L240 130 L240 20 C240 20 240 20 240 20 C240 14.4771 235.5228 10 230 10 C230 10 230 10 230 10 L20 10 L20 10 Z"/>
            </clipPath>
            <clipPath clipPathUnits="userSpaceOnUse" id="clipPath2">
                <path d="M68 12 L185 12 L185 34 L68 34 L68 12 Z"/>
            </clipPath>
            <clipPath clipPathUnits="userSpaceOnUse" id="clipPath3">
                <path d="M10 34 L242 34 L242 142 L10 142 L10 34 Z"/>
            </clipPath>
            <clipPath clipPathUnits="userSpaceOnUse" id="clipPath4">
                <path d="M84 60 C84 60 84 60 84 60 L50 60 C44.4771 60 40 64.4772 40 70 L40 98 C40 103.5228 44.4771 108 50 108 C50 108 50 108 50 108 L50 108 L84 108 C89.5228 108 94 103.5228 94 98 L94 98 L94 70 C94 64.4771 89.5228 60 84 60 Z"/>
            </clipPath>
            <clipPath clipPathUnits="userSpaceOnUse" id="clipPath5">
                <path d="M46 62 L91 62 L91 84 L46 84 L46 62 Z"/>
            </clipPath>
            <clipPath clipPathUnits="userSpaceOnUse" id="clipPath6">
                <path d="M39 59 L96 59 L96 110 L39 110 L39 59 Z"/>
            </clipPath>
            <clipPath clipPathUnits="userSpaceOnUse" id="clipPath7">
                <path d="M204 60 C204 60 204 60 204 60 L170 60 C164.4771 60 160 64.4772 160 70 L160 70 L160 98 C160 103.5228 164.4772 108 170 108 C170 108 170 108 170 108 L170 108 L204 108 C209.5228 108 214 103.5228 214 98 L214 98 L214 70 C214 64.4771 209.5228 60 204 60 Z"/>
            </clipPath>
            <clipPath clipPathUnits="userSpaceOnUse" id="clipPath8">
                <path d="M166 62 L211 62 L211 84 L166 84 L166 62 Z"/>
            </clipPath>
            <clipPath clipPathUnits="userSpaceOnUse" id="clipPath9">
                <path d="M159 59 L216 59 L216 110 L159 110 L159 59 Z"/>
            </clipPath>
            <clipPath clipPathUnits="userSpaceOnUse" id="clipPath10">
                <path d="M10 128 L242 128 L242 142 L10 142 L10 128 Z"/>
            </clipPath>
            <clipPath clipPathUnits="userSpaceOnUse" id="clipPath11">
                <path d="M10 128 L24 128 L24 142 L10 142 L10 128 Z"/>
            </clipPath>
            <clipPath clipPathUnits="userSpaceOnUse" id="clipPath12">
                <path d="M228 128 L242 128 L242 142 L228 142 L228 128 Z"/>
            </clipPath>
            <clipPath clipPathUnits="userSpaceOnUse" id="clipPath13">
                <path d="M22 128 L225 128 L225 142 L22 142 L22 128 Z"/>
            </clipPath>
            <clipPath clipPathUnits="userSpaceOnUse" id="clipPath14">
                <path d="M10 33 L242 33 L242 142 L10 142 L10 33 Z"/>
            </clipPath>
            <clipPath clipPathUnits="userSpaceOnUse" id="clipPath15">
                <path d="M9 9 L242 9 L242 142 L9 142 L9 9 Z"/>
            </clipPath>
            <clipPath clipPathUnits="userSpaceOnUse" id="clipPath16">
                <path d="M-1 -1 L252 -1 L252 152 L-1 152 L-1 -1 Z"/>
            </clipPath>
            <clipPath clipPathUnits="userSpaceOnUse" id="clipPath17">
                <path d="M124 49 L131 49 L131 71 L124 71 L124 49 Z"/>
            </clipPath>
            <clipPath clipPathUnits="userSpaceOnUse" id="clipPath18">
                <path d="M144 74 L162 74 L162 87 L144 87 L144 74 Z"/>
            </clipPath>
        </defs>
        <g fill="url(#linearGradient1)" font-family="'Segoe UI'" stroke-linejoin="round" stroke="url(#linearGradient1)" stroke-width="0" stroke-miterlimit="0">
            <rect x="10" y="10" clip-path="url(#clipPath1)" width="231" height="131" stroke="none"/>
            <text x="69" y="26" clip-path="url(#clipPath2)" fill="black" stroke="none" xml:space="preserve">SubStateMachine</text>
            <rect x="11" y="35" clip-path="url(#clipPath3)" fill="url(#linearGradient2)" width="231" height="106" stroke="none"/>
            <rect x="40" y="60" clip-path="url(#clipPath4)" fill="url(#linearGradient3)" width="55" height="49" stroke="none"/>
            <text x="47" y="76" clip-path="url(#clipPath5)" fill="black" stroke="none" xml:space="preserve">State2</text>
        </g>
        <g stroke-width="1.1" font-family="'Segoe UI'" stroke-linecap="butt">
            <rect x="40" y="60" clip-path="url(#clipPath6)" fill="none" width="54" rx="10" ry="10" height="48"/>
            <rect x="160" y="60" clip-path="url(#clipPath7)" fill="url(#linearGradient4)" width="55" height="49" stroke="none"/>
            <text xml:space="preserve" x="167" y="76" clip-path="url(#clipPath8)" stroke="none">State3</text>
            <rect x="160" y="60" clip-path="url(#clipPath9)" fill="none" width="54" rx="10" ry="10" height="48"/>
            <rect x="11" y="129" clip-path="url(#clipPath10)" fill="white" width="231" height="12" stroke="none"/>
            <rect x="11" y="129" clip-path="url(#clipPath11)" fill="white" width="12" opacity="0.5098" height="12" stroke="none"/>
            <rect x="11" y="129" clip-path="url(#clipPath11)" fill="none" width="12" opacity="0.5098" height="12" stroke="rgb(185,185,185)" stroke-width="21.1"/>
            <line clip-path="url(#clipPath11)" fill="none" x1="54" x2="53" y1="134" y2="135" opacity="0.5098" stroke="rgb(187,187,187)" stroke-width="42.1"/>
            <line clip-path="url(#clipPath11)" fill="none" x1="53" x2="54" y1="135" y2="136" opacity="0.5098" stroke="rgb(187,187,187)" stroke-width="42.1"/>
            <rect x="229" y="129" clip-path="url(#clipPath12)" fill="white" width="12" opacity="0.5098" height="12" stroke="none" stroke-width="42.1"/>
            <rect x="229" y="129" clip-path="url(#clipPath12)" fill="none" width="12" opacity="0.5098" height="12" stroke="rgb(185,185,185)" stroke-width="21.1"/>
            <line clip-path="url(#clipPath12)" fill="none" x1="271" x2="272" y1="134" y2="135" opacity="0.5098" stroke="rgb(187,187,187)" stroke-width="42.1"/>
            <line clip-path="url(#clipPath12)" fill="none" x1="272" x2="271" y1="135" y2="136" opacity="0.5098" stroke="rgb(187,187,187)" stroke-width="42.1"/>
            <rect x="23" y="129" clip-path="url(#clipPath13)" fill="white" width="201" opacity="0.5098" height="12" stroke="none" stroke-width="42.1"/>
            <rect x="23" y="129" clip-path="url(#clipPath13)" fill="none" width="201" opacity="0.5098" height="12" stroke="rgb(185,185,185)" stroke-width="21.1"/>
            <line clip-path="url(#clipPath14)" fill="none" x1="11" x2="242" y1="34" y2="34"/>
            <rect x="10" y="10" clip-path="url(#clipPath15)" fill="none" width="230" rx="10" ry="10" height="130"/>
            <line clip-path="url(#clipPath16)" fill="none" text-rendering="optimizeLegibility" x1="95" x2="160" y1="80" y2="80"/>
            <text x="125" y="63" clip-path="url(#clipPath17)" text-rendering="optimizeLegibility" stroke="none" xml:space="preserve"> </text>
            <line clip-path="url(#clipPath18)" fill="none" text-rendering="optimizeLegibility" x1="145" x2="160" y1="85" y2="80"/>
            <line clip-path="url(#clipPath18)" fill="none" text-rendering="optimizeLegibility" x1="160" x2="145" y1="80" y2="75"/>
            <line clip-path="url(#clipPath16)" fill="none" text-rendering="optimizeLegibility" x1="95" x2="160" y1="80" y2="80"/>
            <text x="125" y="63" clip-path="url(#clipPath17)" text-rendering="optimizeLegibility" stroke="none" xml:space="preserve"> </text>
            <line clip-path="url(#clipPath18)" fill="none" text-rendering="optimizeLegibility" x1="145" x2="160" y1="85" y2="80"/>
            <line clip-path="url(#clipPath18)" fill="none" text-rendering="optimizeLegibility" x1="160" x2="145" y1="80" y2="75"/>
        </g>
    </g>
</svg>
