<?xml version="1.0" encoding="UTF-8"?><svg xmlns="http://www.w3.org/2000/svg" xmlns:xlink="http://www.w3.org/1999/xlink" stroke-dasharray="none" shape-rendering="auto" font-family="'Dialog'" width="351" text-rendering="auto" fill-opacity="1" contentScriptType="text/ecmascript" color-interpolation="auto" color-rendering="auto" preserveAspectRatio="xMidYMid meet" font-size="12" viewBox="0 0 351 171" fill="black" stroke="black" image-rendering="auto" stroke-miterlimit="10" zoomAndPan="magnify" version="1.0" stroke-linecap="square" stroke-linejoin="miter" contentStyleType="text/css" font-style="normal" height="171" stroke-width="1" stroke-dashoffset="0" font-weight="normal" stroke-opacity="1">
    <!--Generated by the Batik Graphics2D SVG Generator-->
    <defs id="genericDefs"/>
    <g>
        <defs id="defs1">
            <linearGradient x1="10" x2="10" y1="10" gradientUnits="userSpaceOnUse" y2="161" xlink:type="simple" xlink:actuate="onLoad" id="linearGradient1" xlink:show="other" spreadMethod="pad">
                <stop stop-opacity="1" stop-color="white" offset="0%"/>
                <stop stop-opacity="1" stop-color="rgb(195,209,213)" offset="100%"/>
            </linearGradient>
            <linearGradient x1="11" x2="11" y1="35" gradientUnits="userSpaceOnUse" y2="161" xlink:type="simple" xlink:actuate="onLoad" id="linearGradient2" xlink:show="other" spreadMethod="pad">
                <stop stop-opacity="1" stop-color="white" offset="0%"/>
                <stop stop-opacity="1" stop-color="rgb(195,209,213)" offset="100%"/>
            </linearGradient>
            <linearGradient x1="40" x2="40" y1="80" gradientUnits="userSpaceOnUse" y2="129" xlink:type="simple" xlink:actuate="onLoad" id="linearGradient3" xlink:show="other" spreadMethod="pad">
                <stop stop-opacity="1" stop-color="white" offset="0%"/>
                <stop stop-opacity="1" stop-color="rgb(195,209,213)" offset="100%"/>
            </linearGradient>
            <linearGradient x1="240" x2="240" y1="80" gradientUnits="userSpaceOnUse" y2="129" xlink:type="simple" xlink:actuate="onLoad" id="linearGradient4" xlink:show="other" spreadMethod="pad">
                <stop stop-opacity="1" stop-color="white" offset="0%"/>
                <stop stop-opacity="1" stop-color="rgb(195,209,213)" offset="100%"/>
            </linearGradient>
            <clipPath clipPathUnits="userSpaceOnUse" id="clipPath1">
                <path d="M20 10 C14.4771 10 10 14.4772 10 20 L10 20 L10 150 C10 155.5228 14.4771 160 20 160 C20 160 20 160 20 160 L20 160 L330 160 C335.5228 160 340 155.5228 340 150 L340 150 L340 20 C340 20 340 20 340 20 C340 14.4771 335.5228 10 330 10 C330 10 330 10 330 10 L20 10 L20 10 Z"/>
            </clipPath>
            <clipPath clipPathUnits="userSpaceOnUse" id="clipPath2">
                <path d="M126 12 L227 12 L227 34 L126 34 L126 12 Z"/>
            </clipPath>
            <clipPath clipPathUnits="userSpaceOnUse" id="clipPath3">
                <path d="M10 34 L342 34 L342 161 L10 161 L10 34 Z"/>
            </clipPath>
            <clipPath clipPathUnits="userSpaceOnUse" id="clipPath4">
                <path d="M84 80 C84 80 84 80 84 80 L50 80 C44.4771 80 40 84.4772 40 90 L40 118 C40 123.5228 44.4771 128 50 128 C50 128 50 128 50 128 L50 128 L84 128 C89.5228 128 94 123.5228 94 118 L94 118 L94 90 C94 84.4771 89.5228 80 84 80 Z"/>
            </clipPath>
            <clipPath clipPathUnits="userSpaceOnUse" id="clipPath5">
                <path d="M46 82 L91 82 L91 104 L46 104 L46 82 Z"/>
            </clipPath>
            <clipPath clipPathUnits="userSpaceOnUse" id="clipPath6">
                <path d="M39 79 L96 79 L96 130 L39 130 L39 79 Z"/>
            </clipPath>
            <clipPath clipPathUnits="userSpaceOnUse" id="clipPath7">
                <path d="M284 80 C284 80 284 80 284 80 L250 80 C244.4771 80 240 84.4772 240 90 L240 90 L240 118 C240 123.5228 244.4772 128 250 128 C250 128 250 128 250 128 L250 128 L284 128 C289.5228 128 294 123.5228 294 118 L294 118 L294 90 C294 84.4771 289.5228 80 284 80 Z"/>
            </clipPath>
            <clipPath clipPathUnits="userSpaceOnUse" id="clipPath8">
                <path d="M246 82 L291 82 L291 104 L246 104 L246 82 Z"/>
            </clipPath>
            <clipPath clipPathUnits="userSpaceOnUse" id="clipPath9">
                <path d="M239 79 L296 79 L296 130 L239 130 L239 79 Z"/>
            </clipPath>
            <clipPath clipPathUnits="userSpaceOnUse" id="clipPath10">
                <path d="M327 34 L342 34 L342 161 L327 161 L327 34 Z"/>
            </clipPath>
            <clipPath clipPathUnits="userSpaceOnUse" id="clipPath11">
                <path d="M329 34 L342 34 L342 48 L329 48 L329 34 Z"/>
            </clipPath>
            <clipPath clipPathUnits="userSpaceOnUse" id="clipPath12">
                <path d="M329 147 L342 147 L342 161 L329 161 L329 147 Z"/>
            </clipPath>
            <clipPath clipPathUnits="userSpaceOnUse" id="clipPath13">
                <path d="M329 46 L342 46 L342 148 L329 148 L329 46 Z"/>
            </clipPath>
            <clipPath clipPathUnits="userSpaceOnUse" id="clipPath14">
                <path d="M10 33 L342 33 L342 161 L10 161 L10 33 Z"/>
            </clipPath>
            <clipPath clipPathUnits="userSpaceOnUse" id="clipPath15">
                <path d="M9 9 L342 9 L342 162 L9 162 L9 9 Z"/>
            </clipPath>
            <clipPath clipPathUnits="userSpaceOnUse" id="clipPath16">
                <path d="M-1 -1 L352 -1 L352 172 L-1 172 L-1 -1 Z"/>
            </clipPath>
            <clipPath clipPathUnits="userSpaceOnUse" id="clipPath17">
                <path d="M124 109 L211 109 L211 131 L124 131 L124 109 Z"/>
            </clipPath>
            <clipPath clipPathUnits="userSpaceOnUse" id="clipPath18">
                <path d="M164 69 L171 69 L171 91 L164 91 L164 69 Z"/>
            </clipPath>
            <clipPath clipPathUnits="userSpaceOnUse" id="clipPath19">
                <path d="M224 94 L242 94 L242 107 L224 107 L224 94 Z"/>
            </clipPath>
        </defs>
        <g fill="url(#linearGradient1)" font-family="'Segoe UI'" stroke-linejoin="round" stroke="url(#linearGradient1)" stroke-width="0" stroke-miterlimit="0">
            <rect x="10" y="10" clip-path="url(#clipPath1)" width="331" height="151" stroke="none"/>
            <text x="127" y="26" clip-path="url(#clipPath2)" fill="black" stroke="none" xml:space="preserve">StateMachine4</text>
            <rect x="11" y="35" clip-path="url(#clipPath3)" fill="url(#linearGradient2)" width="331" height="126" stroke="none"/>
            <rect x="40" y="80" clip-path="url(#clipPath4)" fill="url(#linearGradient3)" width="55" height="49" stroke="none"/>
            <text x="47" y="96" clip-path="url(#clipPath5)" fill="black" stroke="none" xml:space="preserve">State2</text>
        </g>
        <g stroke-width="1.1" font-family="'Segoe UI'" stroke-linecap="butt">
            <rect x="40" y="80" clip-path="url(#clipPath6)" fill="none" width="54" rx="10" ry="10" height="48"/>
            <rect x="240" y="80" clip-path="url(#clipPath7)" fill="url(#linearGradient4)" width="55" height="49" stroke="none"/>
            <text xml:space="preserve" x="247" y="96" clip-path="url(#clipPath8)" stroke="none">State3</text>
            <rect x="240" y="80" clip-path="url(#clipPath9)" fill="none" width="54" rx="10" ry="10" height="48"/>
            <rect x="328" y="35" clip-path="url(#clipPath10)" fill="white" width="14" height="125" stroke="none"/>
            <rect x="330" y="35" clip-path="url(#clipPath11)" fill="white" width="12" opacity="0.5098" height="12" stroke="none"/>
            <rect x="330" y="35" clip-path="url(#clipPath11)" fill="none" width="12" opacity="0.5098" height="12" stroke="rgb(185,185,185)" stroke-width="21.1"/>
            <line clip-path="url(#clipPath11)" fill="none" x1="335" x2="336" y1="78" y2="77" opacity="0.5098" stroke="rgb(187,187,187)" stroke-width="42.1"/>
            <line clip-path="url(#clipPath11)" fill="none" x1="336" x2="337" y1="77" y2="78" opacity="0.5098" stroke="rgb(187,187,187)" stroke-width="42.1"/>
            <rect x="330" y="148" clip-path="url(#clipPath12)" fill="white" width="12" opacity="0.5098" height="12" stroke="none" stroke-width="42.1"/>
            <rect x="330" y="148" clip-path="url(#clipPath12)" fill="none" width="12" opacity="0.5098" height="12" stroke="rgb(185,185,185)" stroke-width="21.1"/>
            <line clip-path="url(#clipPath12)" fill="none" x1="335" x2="336" y1="190" y2="191" opacity="0.5098" stroke="rgb(187,187,187)" stroke-width="42.1"/>
            <line clip-path="url(#clipPath12)" fill="none" x1="336" x2="337" y1="191" y2="190" opacity="0.5098" stroke="rgb(187,187,187)" stroke-width="42.1"/>
            <rect x="330" y="47" clip-path="url(#clipPath13)" fill="white" width="12" opacity="0.5098" height="100" stroke="none" stroke-width="42.1"/>
            <rect x="330" y="47" clip-path="url(#clipPath13)" fill="none" width="12" opacity="0.5098" height="100" stroke="rgb(185,185,185)" stroke-width="21.1"/>
            <line clip-path="url(#clipPath14)" fill="none" x1="11" x2="342" y1="34" y2="34"/>
            <rect x="10" y="10" clip-path="url(#clipPath15)" fill="none" width="330" rx="10" ry="10" height="150"/>
            <line clip-path="url(#clipPath16)" fill="none" text-rendering="optimizeLegibility" x1="95" x2="240" y1="100" y2="100"/>
            <text x="125" y="123" clip-path="url(#clipPath17)" text-rendering="optimizeLegibility" stroke="none" xml:space="preserve">myTransition</text>
            <text x="165" y="83" clip-path="url(#clipPath18)" text-rendering="optimizeLegibility" stroke="none" xml:space="preserve"> </text>
            <line clip-path="url(#clipPath19)" fill="none" text-rendering="optimizeLegibility" x1="225" x2="240" y1="105" y2="100"/>
            <line clip-path="url(#clipPath19)" fill="none" text-rendering="optimizeLegibility" x1="240" x2="225" y1="100" y2="95"/>
            <line clip-path="url(#clipPath16)" fill="none" text-rendering="optimizeLegibility" x1="95" x2="240" y1="100" y2="100"/>
            <text x="125" y="123" clip-path="url(#clipPath17)" text-rendering="optimizeLegibility" stroke="none" xml:space="preserve">myTransition</text>
            <text x="165" y="83" clip-path="url(#clipPath18)" text-rendering="optimizeLegibility" stroke="none" xml:space="preserve"> </text>
            <line clip-path="url(#clipPath19)" fill="none" text-rendering="optimizeLegibility" x1="225" x2="240" y1="105" y2="100"/>
            <line clip-path="url(#clipPath19)" fill="none" text-rendering="optimizeLegibility" x1="240" x2="225" y1="100" y2="95"/>
        </g>
    </g>
</svg>
